<svg width="20" height="20" viewBox="0 0 20 20" fill="none" xmlns="http://www.w3.org/2000/svg">
<path d="M3.33325 15.8332C3.33325 16.2752 3.50885 16.6991 3.82141 17.0117C4.13397 17.3242 4.55789 17.4998 4.99992 17.4998C5.44195 17.4998 5.86587 17.3242 6.17843 17.0117C6.49099 16.6991 6.66659 16.2752 6.66659 15.8332C6.66659 15.3911 6.49099 14.9672 6.17843 14.6547C5.86587 14.3421 5.44195 14.1665 4.99992 14.1665C4.55789 14.1665 4.13397 14.3421 3.82141 14.6547C3.50885 14.9672 3.33325 15.3911 3.33325 15.8332Z" stroke="#242424" stroke-width="1.5" stroke-linecap="round" stroke-linejoin="round"/>
<path d="M8.33325 14.1667H4.99992V2.5H3.33325" stroke="#242424" stroke-width="1.5" stroke-linecap="round" stroke-linejoin="round"/>
<path d="M5 4.1665L16.6667 4.99984L16.0692 9.17984M9.58333 10.8332H5M15 18.3332L17.7917 15.5965C17.9629 15.4304 18.099 15.2316 18.1922 15.012C18.2853 14.7924 18.3335 14.5563 18.3338 14.3178C18.3342 14.0793 18.2868 13.843 18.1944 13.6231C18.102 13.4032 17.9665 13.204 17.7958 13.0373C17.4478 12.6964 16.9803 12.505 16.4931 12.5041C16.0059 12.5032 15.5377 12.6927 15.1883 13.0323L15.0017 13.2157L14.8158 13.0323C14.4679 12.6916 14.0005 12.5004 13.5135 12.4995C13.0265 12.4986 12.5585 12.688 12.2092 13.0273C12.0379 13.1934 11.9017 13.3921 11.8085 13.6117C11.7153 13.8313 11.667 14.0673 11.6666 14.3059C11.6661 14.5444 11.7134 14.7806 11.8058 15.0006C11.8981 15.2205 12.0336 15.4198 12.2042 15.5865L15 18.3332Z" stroke="#242424" stroke-width="1.5" stroke-linecap="round" stroke-linejoin="round"/>
</svg>
